<svg width="22" height="22" viewBox="0 0 22 22" fill="none" xmlns="http://www.w3.org/2000/svg">
    <path d="M3 5H20M9.375 9V15M13.625 9V15M4.0625 5L5.125 17C5.125 17.5304 5.34888 18.0391 5.7474 18.4142C6.14591 18.7893 6.68641 19 7.25 19H15.75C16.3136 19 16.8541 18.7893 17.2526 18.4142C17.6511 18.0391 17.875 17.5304 17.875 17L18.9375 5M8.3125 5V2C8.3125 1.73478 8.42444 1.48043 8.6237 1.29289C8.82296 1.10536 9.09321 1 9.375 1H13.625C13.9068 1 14.177 1.10536 14.3763 1.29289C14.5756 1.48043 14.6875 1.73478 14.6875 2V5" stroke="white" stroke-width="2" stroke-linecap="round" stroke-linejoin="round"/>
</svg>
