<svg width="46" height="46" viewBox="0 0 46 46" fill="none" xmlns="http://www.w3.org/2000/svg">
    <path d="M43 43L33.5558 33.5389M38.7895 20.8947C38.7895 25.6407 36.9041 30.1923 33.5482 33.5482C30.1923 36.9041 25.6407 38.7895 20.8947 38.7895C16.1488 38.7895 11.5972 36.9041 8.24125 33.5482C4.88533 30.1923 3 25.6407 3 20.8947C3 16.1488 4.88533 11.5972 8.24125 8.24125C11.5972 4.88533 16.1488 3 20.8947 3C25.6407 3 30.1923 4.88533 33.5482 8.24125C36.9041 11.5972 38.7895 16.1488 38.7895 20.8947Z" stroke="#766DA5" stroke-width="2" stroke-linecap="round"/>
    <path d="M13.1395 24.0958C12.3798 23.1091 12 22.6148 12 21.15C12 19.6842 12.3798 19.1918 13.1395 18.2042C14.6562 16.2344 17.1998 14 20.9375 14C24.6751 14 27.2187 16.2344 28.7354 18.2042C29.4951 19.1927 29.8749 19.6851 29.8749 21.15C29.8749 22.6157 29.4951 23.1082 28.7354 24.0958C27.2187 26.0656 24.6751 28.3 20.9375 28.3C17.1998 28.3 14.6562 26.0656 13.1395 24.0958Z" stroke="#766DA5" stroke-width="2"/>
    <path d="M23.6193 21.15C23.6193 21.8611 23.3368 22.5431 22.834 23.0459C22.3312 23.5487 21.6492 23.8312 20.9381 23.8312C20.227 23.8312 19.545 23.5487 19.0422 23.0459C18.5393 22.5431 18.2568 21.8611 18.2568 21.15C18.2568 20.4389 18.5393 19.7569 19.0422 19.2541C19.545 18.7512 20.227 18.4688 20.9381 18.4688C21.6492 18.4688 22.3312 18.7512 22.834 19.2541C23.3368 19.7569 23.6193 20.4389 23.6193 21.15Z" stroke="#766DA5" stroke-width="2"/>
</svg>
