<svg width="32" height="32" viewBox="0 0 32 32" fill="none" xmlns="http://www.w3.org/2000/svg">
    <rect width="32" height="32" rx="10" fill="white" fill-opacity="0.5"/>
    <path d="M22.86 20.6587C22.9506 20.3573 23 20.0369 23 19.7059V12.2941C23 11.4205 22.6529 10.5826 22.0352 9.96482C21.4174 9.34706 20.5795 9 19.7059 9H12.2941C11.4205 9 10.5826 9.34706 9.96482 9.96482C9.34706 10.5826 9 11.4205 9 12.2941V19.7635C9.01512 20.6272 9.36884 21.4503 9.98497 22.0556C10.6011 22.661 11.4304 23.0001 12.2941 23H19.7059L19.8022 22.9984M22.86 20.6587L22.7875 20.5731L20.7567 18.1222C20.6026 17.9363 20.4095 17.7866 20.1911 17.6836C19.9727 17.5806 19.7344 17.5269 19.4929 17.5262C19.2514 17.5256 19.0128 17.5781 18.7938 17.6799C18.5749 17.7818 18.3811 17.9305 18.226 18.1156L17.1455 19.4053L16.9693 19.6202M22.86 20.6587C22.6602 21.3203 22.2575 21.9014 21.7087 22.3214C21.16 22.7415 20.493 22.9783 19.8022 22.9984M16.9693 19.6202L19.7256 22.9111L19.8022 22.9984M16.9693 19.6202L14.3118 16.4472C14.1572 16.2627 13.964 16.1143 13.7459 16.0125C13.5278 15.9107 13.29 15.8579 13.0493 15.8579C12.8086 15.8579 12.5708 15.9107 12.3527 16.0125C12.1346 16.1143 11.9414 16.2627 11.7868 16.4472L9.14659 19.5988L9.00082 19.7644" stroke="#4524FF" stroke-width="1.5" stroke-linecap="round" stroke-linejoin="round"/>
    <path d="M18.5459 12.7193C18.952 12.7193 19.2812 13.0486 19.2812 13.4547C19.2812 13.8607 18.9519 14.19 18.5459 14.19C18.1398 14.19 17.8106 13.8607 17.8105 13.4547C17.8105 13.0486 18.1398 12.7193 18.5459 12.7193Z" fill="#4524FF" stroke="#4524FF"/>
</svg>
