<svg viewBox="8.25 8.25 15.5 15.5" fill="none" xmlns="http://www.w3.org/2000/svg">
<path d="M17.8421 12.6842H17.8495M16.3684 22.2632H11.2105C10.6243 22.2632 10.062 22.0303 9.64745 21.6157C9.23289 21.2012 9 20.6389 9 20.0526V11.2105C9 10.6243 9.23289 10.062 9.64745 9.64745C10.062 9.23289 10.6243 9 11.2105 9H20.0526C20.6389 9 21.2012 9.23289 21.6157 9.64745C22.0303 10.062 22.2632 10.6243 22.2632 11.2105V16.3684" stroke="#4524FF" stroke-width="1.2" stroke-linecap="round" stroke-linejoin="round"/>
<path d="M9 18.579L12.6842 14.8947C13.368 14.2367 14.2109 14.2367 14.8947 14.8947L17.1053 17.1053L17.8421 16.3684C18.5259 15.7104 19.3688 15.7104 20.0526 16.3684M23 23L19.3158 19.3158M19.3158 23L23 19.3158" stroke="#4524FF" stroke-width="1.2" stroke-linecap="round" stroke-linejoin="round"/>
</svg>
