<svg width="28" height="28" viewBox="0 0 28 28" fill="none" xmlns="http://www.w3.org/2000/svg">
<path d="M14.4277 15C16.0846 15 17.4277 13.6569 17.4277 12C17.4277 10.3431 16.0846 9 14.4277 9C12.7709 9 11.4277 10.3431 11.4277 12C11.4277 13.6569 12.7709 15 14.4277 15Z" stroke="black" stroke-width="1.5"/>
<path d="M16.1932 2.152C15.8262 2 15.3602 2 14.4282 2C13.4962 2 13.0302 2 12.6632 2.152C12.4204 2.25251 12.1997 2.3999 12.0139 2.58572C11.8281 2.77155 11.6807 2.99218 11.5802 3.235C11.4882 3.458 11.4512 3.719 11.4372 4.098C11.4307 4.37193 11.3548 4.63973 11.2166 4.87635C11.0785 5.11298 10.8825 5.31069 10.6472 5.451C10.408 5.58477 10.1388 5.65567 9.86472 5.65707C9.59066 5.65847 9.32073 5.59032 9.08018 5.459C8.74418 5.281 8.50118 5.183 8.26018 5.151C7.7345 5.08187 7.20288 5.22431 6.78219 5.547C6.46819 5.79 6.23418 6.193 5.76818 7C5.30218 7.807 5.06818 8.21 5.01718 8.605C4.98282 8.86545 5.0001 9.13012 5.06805 9.38389C5.136 9.63767 5.25328 9.87556 5.41318 10.084C5.56118 10.276 5.76818 10.437 6.08918 10.639C6.56218 10.936 6.86619 11.442 6.86619 12C6.86619 12.558 6.56218 13.064 6.08918 13.36C5.76818 13.563 5.56018 13.724 5.41318 13.916C5.25328 14.1244 5.136 14.3623 5.06805 14.6161C5.0001 14.8699 4.98282 15.1345 5.01718 15.395C5.06918 15.789 5.30218 16.193 5.76718 17C6.23418 17.807 6.46719 18.21 6.78219 18.453C6.99062 18.6129 7.22852 18.7302 7.48229 18.7981C7.73606 18.8661 8.00073 18.8834 8.26119 18.849C8.50119 18.817 8.74418 18.719 9.08018 18.541C9.32073 18.4097 9.59066 18.3415 9.86472 18.3429C10.1388 18.3443 10.408 18.4152 10.6472 18.549C11.1302 18.829 11.4172 19.344 11.4372 19.902C11.4512 20.282 11.4872 20.542 11.5802 20.765C11.6807 21.0078 11.8281 21.2284 12.0139 21.4143C12.1997 21.6001 12.4204 21.7475 12.6632 21.848C13.0302 22 13.4962 22 14.4282 22C15.3602 22 15.8262 22 16.1932 21.848C16.436 21.7475 16.6566 21.6001 16.8425 21.4143C17.0283 21.2284 17.1757 21.0078 17.2762 20.765C17.3682 20.542 17.4052 20.282 17.4192 19.902C17.4392 19.344 17.7262 18.828 18.2092 18.549C18.4484 18.4152 18.7176 18.3443 18.9917 18.3429C19.2657 18.3415 19.5356 18.4097 19.7762 18.541C20.1122 18.719 20.3552 18.817 20.5952 18.849C20.8556 18.8834 21.1203 18.8661 21.3741 18.7981C21.6278 18.7302 21.8657 18.6129 22.0742 18.453C22.3892 18.211 22.6222 17.807 23.0882 17C23.5542 16.193 23.7882 15.79 23.8392 15.395C23.8735 15.1345 23.8563 14.8699 23.7883 14.6161C23.7204 14.3623 23.6031 14.1244 23.4432 13.916C23.2952 13.724 23.0882 13.563 22.7672 13.361C22.5331 13.2184 22.339 13.0187 22.2032 12.7807C22.0673 12.5427 21.994 12.2741 21.9902 12C21.9902 11.442 22.2942 10.936 22.7672 10.64C23.0882 10.437 23.2962 10.276 23.4432 10.084C23.6031 9.87556 23.7204 9.63767 23.7883 9.38389C23.8563 9.13012 23.8735 8.86545 23.8392 8.605C23.7872 8.211 23.5542 7.807 23.0892 7C22.6222 6.193 22.3892 5.79 22.0742 5.547C21.8657 5.38709 21.6278 5.26981 21.3741 5.20187C21.1203 5.13392 20.8556 5.11664 20.5952 5.151C20.3552 5.183 20.1122 5.281 19.7752 5.459C19.5348 5.59014 19.265 5.6582 18.9912 5.6568C18.7173 5.6554 18.4483 5.58459 18.2092 5.451C17.9738 5.31069 17.7779 5.11298 17.6397 4.87635C17.5016 4.63973 17.4257 4.37193 17.4192 4.098C17.4052 3.718 17.3692 3.458 17.2762 3.235C17.1757 2.99218 17.0283 2.77155 16.8425 2.58572C16.6566 2.3999 16.436 2.25251 16.1932 2.152Z" stroke="black" stroke-width="1.5"/>
</svg>
