<svg width="32" height="32" viewBox="0 0 32 32" fill="none" xmlns="http://www.w3.org/2000/svg">
    <rect width="32" height="32" rx="10" fill="white" fill-opacity="0.5"/>
    <path d="M9 19.2609V12.7391C9 12.2779 9.1873 11.8355 9.5207 11.5094C9.8541 11.1832 10.3063 11 10.7778 11H18.3333C18.8048 11 19.257 11.1832 19.5904 11.5094C19.9238 11.8355 20.1111 12.2779 20.1111 12.7391V19.2609C20.1111 19.7221 19.9238 20.1645 19.5904 20.4906C19.257 20.8168 18.8048 21 18.3333 21H10.7778C10.3063 21 9.8541 20.8168 9.5207 20.4906C9.1873 20.1645 9 19.7221 9 19.2609ZM24.2604 11.6443L20.7049 14.7426C20.658 14.7833 20.6205 14.8333 20.5948 14.8892C20.569 14.9451 20.5557 15.0056 20.5556 15.067V16.613C20.5557 16.6744 20.569 16.7349 20.5948 16.7908C20.6205 16.8467 20.658 16.8967 20.7049 16.9374L24.2604 20.0357C24.3245 20.0913 24.4036 20.1277 24.4883 20.1403C24.573 20.153 24.6596 20.1415 24.7378 20.1071C24.8159 20.0727 24.8822 20.017 24.9288 19.9466C24.9753 19.8763 25 19.7942 25 19.7104V11.9696C25 11.8858 24.9753 11.8037 24.9288 11.7334C24.8822 11.663 24.8159 11.6073 24.7378 11.5729C24.6596 11.5385 24.573 11.527 24.4883 11.5397C24.4036 11.5523 24.3245 11.5887 24.2604 11.6443Z" stroke="#4524FF" stroke-width="1.5" stroke-linecap="round" stroke-linejoin="round"/>
</svg>
