<svg width="22" height="22" viewBox="0 0 22 22" fill="none" xmlns="http://www.w3.org/2000/svg">
    <path fill-rule="evenodd" clip-rule="evenodd" d="M5.37853 1C5.08218 1.0001 4.79043 1.07375 4.5292 1.21441C4.26797 1.35507 4.04533 1.55839 3.88107 1.80632L0.189847 7.36993C-0.0353903 7.71107 -0.0621308 8.14731 0.11991 8.51326C2.14106 12.5732 4.94811 16.1867 8.37656 19.1422L10.1764 20.6939C10.4057 20.8914 10.6977 21 10.9997 21C11.3017 21 11.5937 20.8914 11.823 20.6939L13.6228 19.1433C17.0518 16.1876 19.8592 12.5736 21.8805 8.51326C22.0626 8.14731 22.0348 7.71107 21.8095 7.36993L18.1163 1.80632C17.952 1.55873 17.7295 1.3557 17.4684 1.21523C17.2074 1.07476 16.9159 1.00119 16.6198 1.00103L5.37853 1ZM5.16461 2.66536C5.18813 2.63003 5.21995 2.60107 5.25727 2.58105C5.29459 2.56104 5.33624 2.55058 5.37853 2.55062H7.78518L5.81564 7.30171C5.77187 7.41089 5.73747 7.52364 5.71279 7.63871C4.98847 7.5844 4.26502 7.51893 3.5427 7.4423L2.09768 7.29034L5.16461 2.66536ZM2.03083 8.84199C3.87726 12.2445 6.31321 15.2884 9.22403 17.8304L6.01002 9.21517C5.13314 9.15457 4.25742 9.07806 3.38328 8.98568L2.03083 8.84199ZM7.69365 9.31131L10.9992 18.1746L14.3058 9.31131C12.1025 9.41169 9.89586 9.41169 7.69262 9.31131M15.9894 9.21517L12.7754 17.8304C15.6862 15.2884 18.1221 12.2445 19.9686 8.84199L18.6161 8.98568C17.7419 9.07734 16.8663 9.15383 15.9894 9.21517ZM19.9007 7.29034L18.4546 7.44333C17.7323 7.51996 17.0089 7.58544 16.2845 7.63974C16.2603 7.52435 16.2262 7.41126 16.1827 7.30171L14.2132 2.55062H16.6198C16.6621 2.55058 16.7038 2.56104 16.7411 2.58105C16.7784 2.60107 16.8102 2.63003 16.8338 2.66536L19.9007 7.29034ZM14.6935 7.74002C12.2313 7.8682 9.76843 7.8682 7.30488 7.74002L9.45646 2.55062H12.5419L14.6935 7.74002Z" fill="white"/>
</svg>
