<svg width="32" height="32" viewBox="0 0 32 32" fill="none" xmlns="http://www.w3.org/2000/svg">
    <rect width="32" height="32" rx="10" fill="white" fill-opacity="0.5"/>
    <path d="M23.9556 13.2073C24.0617 13.4792 23.9722 13.7824 23.7435 13.9762L22.3078 15.2077C22.3443 15.4671 22.3642 15.7328 22.3642 16.0016C22.3642 16.2704 22.3443 16.536 22.3078 16.7955L23.7435 18.027C23.9722 18.2207 24.0617 18.5239 23.9556 18.7959C23.8098 19.1678 23.634 19.5241 23.4318 19.8679L23.276 20.1211C23.0571 20.4649 22.8118 20.79 22.5432 21.0963C22.3476 21.3214 22.0227 21.3964 21.7309 21.3088L19.8842 20.7556C19.4399 21.0776 18.9492 21.3464 18.4253 21.5495L18.0109 23.3342C17.9446 23.6187 17.7125 23.8437 17.4074 23.8906C16.9499 23.9625 16.4791 24 15.9983 24C15.5176 24 15.0468 23.9625 14.5892 23.8906C14.2842 23.8437 14.0521 23.6187 13.9858 23.3342L13.5714 21.5495C13.0475 21.3464 12.5568 21.0776 12.1125 20.7556L10.2691 21.312C9.97732 21.3995 9.65239 21.3214 9.45678 21.0994C9.18822 20.7931 8.94287 20.4681 8.72404 20.1242L8.56821 19.8711C8.36596 19.5273 8.19024 19.1709 8.04435 18.799C7.93826 18.5271 8.02778 18.2239 8.25655 18.0301L9.69218 16.7986C9.65571 16.536 9.63581 16.2704 9.63581 16.0016C9.63581 15.7328 9.65571 15.4671 9.69218 15.2077L8.25655 13.9762C8.02778 13.7824 7.93826 13.4792 8.04435 13.2073C8.19024 12.8353 8.36596 12.479 8.56821 12.1352L8.72404 11.882C8.94287 11.5382 9.18822 11.2131 9.45678 10.9068C9.65239 10.6818 9.97732 10.6068 10.2691 10.6943L12.1158 11.2475C12.5601 10.9256 13.0508 10.6568 13.5747 10.4536L13.9891 8.66888C14.0554 8.38445 14.2875 8.15941 14.5926 8.11252C15.0501 8.03751 15.5209 8 16.0017 8C16.4824 8 16.9532 8.03751 17.4108 8.1094C17.7158 8.15628 17.9479 8.38132 18.0142 8.66576L18.4286 10.4505C18.9525 10.6536 19.4432 10.9224 19.8875 11.2444L21.7342 10.6912C22.026 10.6036 22.3509 10.6818 22.5465 10.9037C22.8151 11.21 23.0604 11.5351 23.2793 11.8789L23.4351 12.1321C23.6374 12.4759 23.8131 12.8322 23.959 13.2041L23.9556 13.2073ZM16.0017 18.5021C16.7051 18.5021 17.3798 18.2386 17.8772 17.7697C18.3746 17.3007 18.6541 16.6647 18.6541 16.0016C18.6541 15.3384 18.3746 14.7024 17.8772 14.2335C17.3798 13.7645 16.7051 13.5011 16.0017 13.5011C15.2982 13.5011 14.6235 13.7645 14.1261 14.2335C13.6287 14.7024 13.3492 15.3384 13.3492 16.0016C13.3492 16.6647 13.6287 17.3007 14.1261 17.7697C14.6235 18.2386 15.2982 18.5021 16.0017 18.5021Z" stroke="#4524FF" stroke-width="1.5"/>
</svg>
